# xmcd CD database file
#
# Track frame offsets:
#	150
#	10912
#	23435
#	38036
#	50529
#	62122
#	75821
#	86413
#	105470
#	126732
#	145488
#	171932
#	196707
#	224879
#	246521
#
# Disc length: 3590 seconds
#
# Revision: 2
# Processed by: cddbd v1.5.2PL0 Copyright (c) Steve Scherf et al.
# Submitted via: CDex 1.79
#
DISCID=ce0e040f
DTITLE=Aretha Franklin - The Best of Aretha Franklin
DYEAR=2007
DGENRE=Soul
TTITLE0=The Shoop Shoop Song
TTITLE1=Walk On By
TTITLE2=Try A Little Tenderness
TTITLE3=Every Little Bit Hurts
TTITLE4=Mocking Bird
TTITLE5=God Bless The Child
TTITLE6=Soulville
TTITLE7=Jump to it
TTITLE8=Who's Zoomin' Who?
TTITLE9=Better Friends Than Lovers
TTITLE10=Freeway Of Love
TTITLE11=I Got Your Love
TTITLE12=Get It Right
TTITLE13=Until You Say You Love Me
TTITLE14=Jumpin' Jack Flash
EXTD=YEAR: 2007
EXTT0=
EXTT1=
EXTT2=
EXTT3=
EXTT4=
EXTT5=
EXTT6=
EXTT7=
EXTT8=
EXTT9=
EXTT10=
EXTT11=
EXTT12=
EXTT13=
EXTT14=
PLAYORDER=
